<svg xmlns="http://www.w3.org/2000/svg" xmlns:xlink="http://www.w3.org/1999/xlink"><symbol id="icon__arrow_down" viewBox="0 0 24 24"><path fill-rule="evenodd" clip-rule="evenodd" d="M7.47 9.47a.75.75 0 011.06 0L12 12.94l3.47-3.47a.75.75 0 111.06 1.06l-4 4a.75.75 0 01-1.06 0l-4-4a.75.75 0 010-1.06z" fill="#181C32"/></symbol><symbol id="icon__fb" viewBox="0 0 48 48"><path fill-rule="evenodd" clip-rule="evenodd" d="M24 0C10.745 0 0 10.745 0 24s10.745 24 24 24 24-10.745 24-24S37.255 0 24 0zm2.502 25.054v13.058h-5.403V25.054H18.4v-4.5h2.7v-2.701c0-3.671 1.523-5.854 5.853-5.854h3.605v4.5h-2.253c-1.686 0-1.797.629-1.797 1.802l-.006 2.253h4.082l-.478 4.5h-3.604z" fill="#3E97FF"/></symbol><symbol id="icon__info" viewBox="0 0 24 24"><path clip-rule="evenodd" d="M11 8.253a1 1 0 112-.005 1 1 0 01-2 .005z"/><path clip-rule="evenodd" d="M12 3.75A8.25 8.25 0 003.75 12 8.25 8.25 0 0012 20.25 8.25 8.25 0 0020.25 12 8.25 8.25 0 0012 3.75zM2.25 12A9.75 9.75 0 0112 2.25 9.75 9.75 0 0121.75 12 9.75 9.75 0 0112 21.75 9.75 9.75 0 012.25 12z"/><path clip-rule="evenodd" d="M12 11.25a.75.75 0 01.75.75v5a.75.75 0 01-1.5 0v-5a.75.75 0 01.75-.75z"/></symbol><symbol id="icon__tg" viewBox="0 0 48 48"><path fill-rule="evenodd" clip-rule="evenodd" d="M24 48c13.255 0 24-10.745 24-24S37.255 0 24 0 0 10.745 0 24s10.745 24 24 24zm-4.4-13c.584 0 .85-.26 1.173-.574l.027-.026 2.883-2.803 5.997 4.43c1.104.61 1.9.294 2.175-1.024l3.937-18.552c.403-1.617-.616-2.35-1.672-1.87l-23.118 8.914c-1.578.633-1.569 1.513-.287 1.906l5.932 1.851 13.735-8.665c.648-.393 1.243-.181.755.252L20.009 28.881l-.001.001L19.6 35z" fill="#3E97FF"/></symbol><symbol id="icon__vk" viewBox="0 0 48 48"><path fill-rule="evenodd" clip-rule="evenodd" d="M24 0C10.745 0 0 10.745 0 24s10.745 24 24 24 24-10.745 24-24S37.255 0 24 0zm1.954 31.576c-.236.25-.698.3-.698.3h-1.53s-3.376.2-6.35-2.84c-3.243-3.314-6.106-9.89-6.106-9.89s-.166-.432.013-.64c.202-.234.752-.25.752-.25l3.657-.023s.344.056.591.234c.204.148.318.422.318.422s.591 1.467 1.374 2.794c1.528 2.593 2.24 3.16 2.758 2.881.756-.404.53-3.663.53-3.663s.013-1.183-.381-1.71c-.306-.408-.882-.527-1.136-.56-.206-.028.132-.497.57-.707.659-.316 1.82-.335 3.194-.321 1.07.011 1.379.076 1.797.176.97.23.94.966.875 2.557-.02.475-.042 1.027-.042 1.665 0 .143-.005.296-.009.453-.023.814-.049 1.747.498 2.094.28.177.965.026 2.68-2.83.812-1.355 1.42-2.946 1.42-2.946s.135-.284.341-.406c.212-.124.497-.086.497-.086l3.85-.023s1.156-.137 1.343.377c.196.537-.432 1.793-2.005 3.85-1.492 1.953-2.218 2.672-2.15 3.307.048.465.52.885 1.425 1.71 1.89 1.722 2.397 2.629 2.52 2.846l.022.04c.848 1.38-.94 1.489-.94 1.489l-3.42.047s-.734.142-1.7-.51c-.506-.34-1.001-.897-1.473-1.427-.72-.81-1.384-1.559-1.952-1.382-.952.298-.924 2.312-.924 2.312s.008.431-.209.66z" fill="#3E97FF"/></symbol><symbol id="logo" viewBox="0 0 205 40"><path fill-rule="evenodd" clip-rule="evenodd" d="M152 20c0 11.046-8.954 20-20 20s-20-8.954-20-20 8.954-20 20-20 20 8.954 20 20zm-7 0c0 7.18-5.82 13-13 13s-13-5.82-13-13 5.82-13 13-13 13 5.82 13 13z" fill="#181C32"/><path d="M14.24 31H6.688V14.456H.128V8.6H20.8v5.856h-6.56V31zM30.825 22.36v2.944h11.2V31H23.401V8.6H41.61v5.696H30.825v2.624h9.472v5.44h-9.472zM45.573 31h17.664v-5.856H53.125V8.6h-7.552V31zM73.387 22.36v2.944h11.2V31H65.963V8.6H84.17v5.696H73.387v2.624h9.472v5.44h-9.472z" fill="#181C32"/><path fill-rule="evenodd" clip-rule="evenodd" d="M98.918 8.6H88.134V31h7.552v-5.504h3.232c6.24 0 10.208-3.264 10.208-8.448 0-5.184-3.968-8.448-10.208-8.448zm-.48 11.072h-2.752v-5.248h2.752c2.08 0 3.072.992 3.072 2.624 0 1.632-.992 2.624-3.072 2.624zM175.232 31h8.064l-4.704-6.912c2.688-1.376 4.224-3.808 4.224-7.04 0-5.184-3.968-8.448-10.208-8.448h-10.784V31h7.552v-5.632h2.048L175.232 31zm-.032-13.952c0 1.632-.992 2.624-3.072 2.624h-2.752v-5.248h2.752c2.08 0 3.072.992 3.072 2.624z" fill="#181C32"/><path d="M190.859 31h7.552V14.456h6.56V8.6h-20.672v5.856h6.56V31z" fill="#181C32"/><path fill-rule="evenodd" clip-rule="evenodd" d="M139 33c7.18 0 13-5.82 13-13s-5.82-13-13-13-13 5.82-13 13 5.82 13 13 13zm0 7c11.046 0 20-8.954 20-20s-8.954-20-20-20-20 8.954-20 20 8.954 20 20 20z" fill="#3E97FF"/></symbol><view id="icon__arrow_down-view" viewBox="0 0 24 24"/>
<use xlink:href="#icon__arrow_down" style="fill:black" width="24" height="24" x="0" y="0" id="arrow_down"/>
</svg>