<?xml version="1.0" standalone="no"?>
<!DOCTYPE svg PUBLIC "-//W3C//DTD SVG 20010904//EN"
 "http://www.w3.org/TR/2001/REC-SVG-20010904/DTD/svg10.dtd">
<svg version="1.0" xmlns="http://www.w3.org/2000/svg"
 width="480.000000pt" height="480.000000pt" viewBox="0 0 480.000000 480.000000"
 preserveAspectRatio="xMidYMid meet">
<metadata>
Created by potrace 1.14, written by Peter Selinger 2001-2017
</metadata>
<g transform="translate(0.000000,480.000000) scale(0.100000,-0.100000)"
fill="#000000" stroke="none">
<path d="M1930 4297 c-3 -3 -32 -7 -65 -10 -78 -8 -155 -21 -235 -42 -439
-110 -813 -357 -1091 -720 -146 -190 -275 -461 -331 -695 -46 -194 -56 -286
-53 -495 1 -110 5 -215 9 -232 3 -18 8 -45 10 -60 12 -83 42 -202 78 -308 38
-114 138 -328 179 -386 10 -15 19 -32 19 -38 0 -6 4 -11 8 -11 5 0 14 -10 19
-23 18 -38 164 -216 246 -299 265 -267 631 -461 1007 -533 25 -5 51 -9 150
-22 71 -10 392 -9 450 1 53 10 93 9 175 -3 59 -9 364 -7 438 3 716 94 1309
556 1575 1226 54 137 102 328 119 475 10 83 10 397 0 470 -68 509 -320 960
-714 1277 -215 174 -459 296 -738 368 -106 28 -131 33 -240 48 -48 7 -343 8
-510 2 -44 -2 -175 0 -290 4 -116 4 -213 5 -215 3z m558 -1093 c124 -54 272
-176 359 -294 308 -419 212 -1013 -213 -1316 -56 -40 -174 -104 -198 -108 -6
-1 -16 -5 -22 -9 -14 -8 -98 25 -177 71 -240 139 -413 393 -456 667 -9 62 -7
261 3 305 3 14 8 36 11 50 2 14 14 52 25 85 83 241 263 443 490 547 93 43 85
43 178 2z"/>
</g>
</svg>
